<mxfile host="app.diagrams.net" modified="2022-11-12T05:33:03.098Z" agent="5.0 (Macintosh; Intel Mac OS X 10_15_7) AppleWebKit/537.36 (KHTML, like Gecko) Chrome/107.0.0.0 Safari/537.36" etag="0UsM4YdUAfwJj8af1YJJ" version="20.5.1" type="github">
  <diagram id="9fnjXT7nlAm7Ix4f8WDv" name="Page-1">
    <mxGraphModel dx="931" dy="767" grid="0" gridSize="10" guides="1" tooltips="1" connect="1" arrows="1" fold="1" page="1" pageScale="1" pageWidth="800" pageHeight="350" background="#EFF1F3" math="0" shadow="0">
      <root>
        <mxCell id="0" />
        <mxCell id="1" parent="0" />
        <mxCell id="-xf_uFu9KCXf6jcXoVjT-15" value="&lt;font color=&quot;#eff1f3&quot; style=&quot;font-size: 23px;&quot;&gt;数据&lt;/font&gt;" style="rounded=1;whiteSpace=wrap;html=1;fontSize=23;fillColor=#6DB5A8;strokeColor=none;" parent="1" vertex="1">
          <mxGeometry x="626" y="258.62" width="156" height="60" as="geometry" />
        </mxCell>
        <mxCell id="wXnlQ6We--i8zTj_RJ6M-1" value="&lt;font color=&quot;#eff1f3&quot; style=&quot;font-size: 23px&quot;&gt;TCP Header&lt;/font&gt;" style="rounded=1;whiteSpace=wrap;html=1;fontSize=23;fillColor=#6DB5A8;strokeColor=none;" parent="1" vertex="1">
          <mxGeometry x="322" y="258.62" width="206" height="60" as="geometry" />
        </mxCell>
        <mxCell id="wXnlQ6We--i8zTj_RJ6M-2" value="&lt;font color=&quot;#eff1f3&quot; style=&quot;font-size: 23px&quot;&gt;IP Header&lt;/font&gt;" style="rounded=1;whiteSpace=wrap;html=1;fontSize=23;fillColor=#6DB5A8;strokeColor=none;" parent="1" vertex="1">
          <mxGeometry x="18" y="258.62" width="206" height="60" as="geometry" />
        </mxCell>
        <mxCell id="wXnlQ6We--i8zTj_RJ6M-4" value="" style="shape=image;verticalLabelPosition=bottom;labelBackgroundColor=default;verticalAlign=top;aspect=fixed;imageAspect=0;image=data:image/svg+xml,PHN2ZyB4bWxuczp4bGluaz0iaHR0cDovL3d3dy53My5vcmcvMTk5OS94bGluayIgeG1sbnM9Imh0dHA6Ly93d3cudzMub3JnLzIwMDAvc3ZnIiBoZWlnaHQ9IjIwMCIgd2lkdGg9IjIwMCIgdmVyc2lvbj0iMS4xIiB2aWV3Qm94PSIwIDAgMTAyNCAxMDI0IiBjbGFzcz0iaWNvbiI+PHBhdGggZmlsbD0iIzRBOTE5QiIgZD0iTTgwOC40MDcwNCA0NTUuNjhsMCAxMTIuNjRjMCA4LjQ3ODcyLTYuODcxMDQgMTUuMzYtMTUuMzYgMTUuMzZMNTg0LjgzNzEyIDU4My42OGwwIDIwOC4yMDk5MmMwIDguNDg4OTYtNi44ODEyOCAxNS4zNi0xNS4zNiAxNS4zNmwtMTEyLjY0IDBjLTguNDc4NzIgMC0xNS4zNi02Ljg3MTA0LTE1LjM2LTE1LjM2TDQ0MS40NzcxMiA1ODMuNjggMjMzLjI2NzIgNTgzLjY4Yy04LjQ4ODk2IDAtMTUuMzYtNi44ODEyOC0xNS4zNi0xNS4zNmwwLTExMi42NGMwLTguNDc4NzIgNi44NzEwNC0xNS4zNiAxNS4zNi0xNS4zNmwyMDguMjA5OTIgMEw0NDEuNDc3MTIgMjMyLjExMDA4YzAtOC40ODg5NiA2Ljg4MTI4LTE1LjM2IDE1LjM2LTE1LjM2bDExMi42NCAwYzguNDc4NzIgMCAxNS4zNiA2Ljg3MTA0IDE1LjM2IDE1LjM2TDU4NC44MzcxMiA0NDAuMzJsMjA4LjIwOTkyIDBDODAxLjUzNiA0NDAuMzIgODA4LjQwNzA0IDQ0Ny4yMDEyOCA4MDguNDA3MDQgNDU1LjY4eiIvPjwvc3ZnPg==;" parent="1" vertex="1">
          <mxGeometry x="525.75" y="238.5" width="100.25" height="100.25" as="geometry" />
        </mxCell>
        <mxCell id="wXnlQ6We--i8zTj_RJ6M-6" value="" style="shape=image;verticalLabelPosition=bottom;labelBackgroundColor=default;verticalAlign=top;aspect=fixed;imageAspect=0;image=data:image/svg+xml,PHN2ZyB4bWxuczp4bGluaz0iaHR0cDovL3d3dy53My5vcmcvMTk5OS94bGluayIgeG1sbnM9Imh0dHA6Ly93d3cudzMub3JnLzIwMDAvc3ZnIiBoZWlnaHQ9IjIwMCIgd2lkdGg9IjIwMCIgdmVyc2lvbj0iMS4xIiB2aWV3Qm94PSIwIDAgMTAyNCAxMDI0IiBjbGFzcz0iaWNvbiI+PHBhdGggZmlsbD0iIzRBOTE5QiIgZD0iTTgwOC40MDcwNCA0NTUuNjhsMCAxMTIuNjRjMCA4LjQ3ODcyLTYuODcxMDQgMTUuMzYtMTUuMzYgMTUuMzZMNTg0LjgzNzEyIDU4My42OGwwIDIwOC4yMDk5MmMwIDguNDg4OTYtNi44ODEyOCAxNS4zNi0xNS4zNiAxNS4zNmwtMTEyLjY0IDBjLTguNDc4NzIgMC0xNS4zNi02Ljg3MTA0LTE1LjM2LTE1LjM2TDQ0MS40NzcxMiA1ODMuNjggMjMzLjI2NzIgNTgzLjY4Yy04LjQ4ODk2IDAtMTUuMzYtNi44ODEyOC0xNS4zNi0xNS4zNmwwLTExMi42NGMwLTguNDc4NzIgNi44NzEwNC0xNS4zNiAxNS4zNi0xNS4zNmwyMDguMjA5OTIgMEw0NDEuNDc3MTIgMjMyLjExMDA4YzAtOC40ODg5NiA2Ljg4MTI4LTE1LjM2IDE1LjM2LTE1LjM2bDExMi42NCAwYzguNDc4NzIgMCAxNS4zNiA2Ljg3MTA0IDE1LjM2IDE1LjM2TDU4NC44MzcxMiA0NDAuMzJsMjA4LjIwOTkyIDBDODAxLjUzNiA0NDAuMzIgODA4LjQwNzA0IDQ0Ny4yMDEyOCA4MDguNDA3MDQgNDU1LjY4eiIvPjwvc3ZnPg==;" parent="1" vertex="1">
          <mxGeometry x="221.75" y="238.5" width="100.25" height="100.25" as="geometry" />
        </mxCell>
        <mxCell id="wXnlQ6We--i8zTj_RJ6M-7" value="" style="shape=image;verticalLabelPosition=bottom;labelBackgroundColor=default;verticalAlign=top;aspect=fixed;imageAspect=0;image=data:image/svg+xml,PHN2ZyB4bWxuczp4bGluaz0iaHR0cDovL3d3dy53My5vcmcvMTk5OS94bGluayIgeG1sbnM9Imh0dHA6Ly93d3cudzMub3JnLzIwMDAvc3ZnIiBoZWlnaHQ9IjIwMCIgd2lkdGg9IjIwMCIgdmVyc2lvbj0iMS4xIiB2aWV3Qm94PSIwIDAgMTAyNCAxMDI0IiBjbGFzcz0iaWNvbiI+PHBhdGggZmlsbD0iIzRBOTE5QiIgZD0iTTI4NS44NjY2NjcgMzkyLjUzMzMzM2wyMzQuNjY2NjY2IDEzNi41MzMzMzQgMjI2LjEzMzMzNC0xMzIuMjY2NjY3TDUxMiAyNjQuNTMzMzMzbC0yMjYuMTMzMzMzIDEyOHogbS0yOS44NjY2NjcgODUuMzMzMzM0VjY0MGwyMTMuMzMzMzMzIDEyMy43MzMzMzN2LTE1Ny44NjY2NjZsLTIxMy4zMzMzMzMtMTI4eiBtNTEyIDQuMjY2NjY2bC0yMTMuMzMzMzMzIDEyMy43MzMzMzR2MTUzLjZsMjEzLjMzMzMzMy0xMjMuNzMzMzM0di0xNTMuNnpNNTEyIDE3MC42NjY2NjdsMzQxLjMzMzMzMyAxOTYuMjY2NjY2VjY4Mi42NjY2NjdsLTM0MS4zMzMzMzMgMTk2LjI2NjY2NkwxNzAuNjY2NjY3IDY4Mi42NjY2NjdWMzY2LjkzMzMzM0w1MTIgMTcwLjY2NjY2N3oiLz48L3N2Zz4=;" parent="1" vertex="1">
          <mxGeometry x="326" y="13.5" width="148.5" height="148.5" as="geometry" />
        </mxCell>
        <mxCell id="wXnlQ6We--i8zTj_RJ6M-8" value="" style="shape=curlyBracket;whiteSpace=wrap;html=1;rounded=1;fillColor=#6DB5A8;rotation=90;strokeWidth=3;strokeColor=#4A919B;" parent="1" vertex="1">
          <mxGeometry x="375.5" y="-156" width="51" height="757" as="geometry" />
        </mxCell>
        <mxCell id="wXnlQ6We--i8zTj_RJ6M-9" value="&lt;font color=&quot;#4a919b&quot; style=&quot;font-size: 30px;&quot;&gt;数据包&lt;/font&gt;" style="text;html=1;strokeColor=none;fillColor=none;align=center;verticalAlign=middle;whiteSpace=wrap;rounded=0;strokeWidth=3;fontColor=#EFF1F3;" parent="1" vertex="1">
          <mxGeometry x="338" y="140.5" width="118" height="48" as="geometry" />
        </mxCell>
      </root>
    </mxGraphModel>
  </diagram>
</mxfile>
